<svg id="visual" viewBox="0 0 900 600" width="900" height="600" xmlns="http://www.w3.org/2000/svg" xmlns:xlink="http://www.w3.org/1999/xlink" version="1.1"><rect x="0" y="0" width="900" height="600" fill="#feecde"></rect><path d="M0 293L21.5 287.3C43 281.7 86 270.3 128.8 269.5C171.7 268.7 214.3 278.3 257.2 298C300 317.7 343 347.3 385.8 356.2C428.7 365 471.3 353 514.2 360.2C557 367.3 600 393.7 642.8 397C685.7 400.3 728.3 380.7 771.2 374.8C814 369 857 377 878.5 381L900 385L900 601L878.5 601C857 601 814 601 771.2 601C728.3 601 685.7 601 642.8 601C600 601 557 601 514.2 601C471.3 601 428.7 601 385.8 601C343 601 300 601 257.2 601C214.3 601 171.7 601 128.8 601C86 601 43 601 21.5 601L0 601Z" fill="#387ccc" stroke-linecap="round" stroke-linejoin="miter"></path></svg>